<?xml version="1.0" encoding="UTF-8"?>
<!-- Generated by Pixelmator Pro 3.8 -->
<svg width="4046" height="647" viewBox="0 0 4046 647" xmlns="http://www.w3.org/2000/svg">
    <g id="Group-copy">
        <g id="Group">
            <path id="Text" fill="#000000" stroke="none" d="M 1.348397 1.832092 L 144.903076 1.832092 C 154.473389 1.832092 163.653076 3.882874 172.442139 7.984436 C 181.817139 12.476624 189.727295 18.238342 196.172607 25.269592 C 202.813232 31.910217 208.281982 40.406311 212.578857 50.757874 C 216.68042 60.523499 218.731201 70.972717 218.731201 82.10553 L 218.731201 512.769531 L 183.281982 512.769531 L 183.281982 82.10553 C 183.281982 76.63678 182.30542 71.265686 180.352295 65.992249 C 178.594482 60.718811 175.860107 55.933655 172.14917 51.63678 C 168.24292 47.144592 163.750732 43.628967 158.672607 41.089905 C 153.594482 38.550842 147.539795 37.281311 140.508545 37.281311 L 1.348397 37.281311 Z M 132.30542 82.10553 L 132.30542 82.398499 C 133.281982 82.398499 134.356201 82.984436 135.528076 84.156311 C 136.699951 85.328186 137.285889 86.988342 137.285889 89.13678 L 137.285889 512.769531 L 173.906982 512.769531 L 173.906982 87.378967 C 173.906982 83.082092 173.125732 78.394592 171.563232 73.316467 C 170.196045 68.628967 167.949951 64.234436 164.824951 60.132874 C 161.504639 56.421936 157.696045 53.19928 153.39917 50.464905 C 151.05542 49.29303 148.565186 48.365295 145.928467 47.681702 C 143.291748 46.998108 140.313232 46.656311 136.99292 46.656311 L 1.348397 46.656311 L 1.348397 82.10553 Z"/>
            <path id="path1" fill="#000000" stroke="none" d="M 233.379639 512.769531 L 233.379639 250.562531 L 267.071045 250.562531 L 267.071045 292.750061 L 267.071045 301.539124 L 267.071045 337.574249 L 267.071045 355.152374 L 267.071045 512.769531 Z M 276.446045 295.093811 L 276.446045 250.562531 L 313.653076 250.562531 L 313.653076 278.98053 L 366.973389 251.734406 L 391.582764 251.734406 C 404.082764 251.734406 415.215576 253.101593 424.981201 255.835968 C 434.160889 258.765676 441.875732 263.35553 448.125732 269.60553 C 453.985107 276.050842 458.379639 284.351624 461.309326 294.507874 C 462.871826 299.585999 463.946045 305.250061 464.531982 311.500061 C 465.11792 317.750061 465.410889 324.585988 465.410889 332.007843 L 465.410889 512.769531 L 432.012451 512.769531 L 432.012451 324.390686 C 432.012451 318.726624 431.328857 313.843811 429.96167 309.742249 C 428.789795 305.250061 426.641357 301.246155 423.516357 297.73053 C 420.977295 294.214905 417.266357 291.578186 412.383545 289.820374 C 409.844482 288.843811 407.158936 288.111389 404.326904 287.623108 C 401.494873 287.134827 398.418701 286.890686 395.098389 286.890686 L 370.489014 286.890686 L 276.446045 331.421906 Z M 374.590576 299.195374 L 276.446045 343.140656 L 276.446045 512.769531 L 313.653076 512.769531 L 313.653076 357.203156 L 382.207764 332.007843 C 383.184326 331.617218 384.112061 331.666046 384.990967 332.154327 C 385.869873 332.642609 386.602295 333.179718 387.188232 333.765656 C 388.55542 334.937531 389.239014 336.597687 389.239014 338.746124 L 389.239014 512.769531 L 422.344482 512.769531 L 422.344482 329.957092 C 422.344482 324.878967 421.953857 320.484436 421.172607 316.773499 C 420.391357 312.867249 418.731201 309.351624 416.192139 306.226624 C 414.239014 303.101624 411.114014 300.757874 406.817139 299.195374 C 405.840576 298.804749 403.887451 298.462952 400.957764 298.169983 C 398.028076 297.877014 394.854248 297.681702 391.436279 297.584045 C 388.018311 297.486389 384.697998 297.584045 381.475342 297.877014 C 378.252686 298.169983 375.957764 298.609436 374.590576 299.195374 Z"/>
            <path id="path2" fill="#000000" stroke="none" d="M 648.809326 212.183624 L 648.809326 200.171906 C 648.809326 197.046906 649.297607 193.726593 650.27417 190.210968 C 650.664795 188.453156 651.201904 186.841827 651.885498 185.376984 C 652.569092 183.91214 653.39917 182.398468 654.375732 180.835968 C 656.719482 177.906281 659.160889 175.660187 661.699951 174.097687 C 664.239014 172.535187 667.656982 171.753937 671.953857 171.753937 C 674.102295 171.753937 678.594482 171.41214 685.43042 170.728546 C 692.266357 170.044952 700.176514 169.898468 709.160889 170.289093 L 709.160889 196.363312 L 674.883545 196.363312 C 674.49292 196.558624 674.199951 196.753937 674.004639 196.949249 C 673.614014 197.144562 673.223389 197.437531 672.832764 197.828156 C 672.051514 198.414093 671.660889 199.488312 671.660889 201.050812 L 671.660889 212.183624 Z M 620.098389 187.867218 C 620.684326 183.375031 621.758545 178.882843 623.321045 174.390656 C 625.860107 167.750031 629.278076 161.792999 633.574951 156.519562 C 638.067139 151.441437 643.047607 147.437541 648.516357 144.507874 C 653.985107 141.578186 659.746826 140.113342 665.801514 140.113342 L 709.160889 140.113342 L 709.160889 164.722687 L 668.438232 164.722687 C 664.531982 164.722687 660.821045 165.699249 657.30542 167.652374 C 653.789795 169.996124 650.957764 172.437531 648.809326 174.976593 C 646.465576 177.906281 644.707764 181.324249 643.535889 185.230499 C 642.364014 189.136749 641.778076 192.847687 641.778076 196.363312 L 641.778076 212.183624 L 620.098389 212.183624 Z M 513.457764 252.027374 L 513.457764 409.058655 L 513.457764 426.636749 L 513.457764 462.378967 L 513.457764 471.167999 L 513.457764 512.769531 L 480.059326 512.769531 L 480.059326 252.027374 Z M 523.125732 432.789093 L 615.410889 476.734406 L 640.020264 476.734406 C 646.465576 476.734406 652.227295 475.855499 657.30542 474.097687 C 661.602295 472.535187 665.410889 469.898478 668.731201 466.187561 C 671.660889 463.062561 673.71167 459.156311 674.883545 454.468811 C 676.250732 450.171916 676.934326 445.289093 676.934326 439.820343 L 676.934326 252.027374 L 710.332764 252.027374 L 710.332764 432.203156 C 710.332764 439.625031 710.039795 446.41215 709.453857 452.564514 C 708.86792 458.716858 707.793701 464.332082 706.231201 469.410187 C 703.301514 479.371145 698.906982 487.57427 693.047607 494.019562 C 686.797607 500.269562 679.082764 504.859406 669.903076 507.789093 C 660.137451 510.523468 649.004639 511.890656 636.504639 511.890656 L 611.895264 511.890656 L 560.332764 493.140656 L 560.332764 512.769531 L 523.125732 512.769531 L 523.125732 468.824249 Z M 523.125732 421.363342 L 523.125732 252.027374 L 560.332764 252.027374 L 560.332764 407.300842 L 627.129639 432.203156 C 628.106201 432.789093 629.033936 432.789093 629.912842 432.203156 C 630.791748 431.617218 631.52417 431.031281 632.110107 430.445343 C 633.477295 429.273468 634.160889 427.613312 634.160889 425.464874 L 634.160889 252.027374 L 667.266357 252.027374 L 667.266357 434.546906 C 667.266357 439.429718 666.875732 443.726593 666.094482 447.437531 C 665.11792 451.539113 663.55542 455.054749 661.406982 457.984436 C 658.86792 461.109436 655.645264 463.35553 651.739014 464.722717 C 650.762451 465.113342 648.809326 465.503967 645.879639 465.894592 C 642.949951 466.285217 639.776123 466.48053 636.358154 466.48053 C 632.940186 466.48053 629.619873 466.382874 626.397217 466.187561 C 623.174561 465.992249 620.879639 465.503967 619.512451 464.722717 Z"/>
            <path id="path3" fill="#000000" stroke="none" d="M 610.246826 1.832092 L 753.801514 1.832092 C 763.371826 1.832092 772.551514 3.882874 781.340576 7.984436 C 790.715576 12.476624 798.625732 18.238342 805.071045 25.269592 C 811.71167 31.910217 817.18042 40.406311 821.477295 50.757874 C 825.578857 60.523499 827.629639 70.972717 827.629639 82.10553 L 827.629639 512.769531 L 792.18042 512.769531 L 792.18042 82.10553 C 792.18042 76.63678 791.203857 71.265686 789.250732 65.992249 C 787.49292 60.718811 784.758545 55.933655 781.047607 51.63678 C 777.141357 47.144592 772.64917 43.628967 767.571045 41.089905 C 762.49292 38.550842 756.438232 37.281311 749.406982 37.281311 L 610.246826 37.281311 Z M 741.203857 82.10553 L 741.203857 82.398499 C 742.18042 82.398499 743.254639 82.984436 744.426514 84.156311 C 745.598389 85.328186 746.184326 86.988342 746.184326 89.13678 L 746.184326 512.769531 L 782.80542 512.769531 L 782.80542 87.378967 C 782.80542 83.082092 782.02417 78.394592 780.46167 73.316467 C 779.094482 68.628967 776.848389 64.234436 773.723389 60.132874 C 770.403076 56.421936 766.594482 53.19928 762.297607 50.464905 C 759.953857 49.29303 757.463623 48.365295 754.826904 47.681702 C 752.190186 46.998108 749.21167 46.656311 745.891357 46.656311 L 610.246826 46.656311 L 610.246826 82.10553 Z"/>
            <path id="path4" fill="#000000" stroke="none" d="M 845.793701 252.027374 L 1009.270264 252.027374 C 1018.645264 252.027374 1027.922607 254.078166 1037.102295 258.179749 C 1045.891357 262.476624 1053.801514 268.140686 1060.832764 275.171936 C 1067.668701 282.789124 1073.137451 291.285217 1077.239014 300.660217 C 1081.145264 310.23053 1083.098389 320.777395 1083.098389 332.300812 L 1083.098389 512.476563 L 1047.942139 512.476563 L 1047.942139 332.300812 C 1047.942139 329.566457 1047.697998 326.88092 1047.209717 324.244202 C 1046.721436 321.607483 1045.989014 318.921936 1045.012451 316.187561 C 1044.035889 313.453186 1042.815186 310.865295 1041.350342 308.423889 C 1039.885498 305.982483 1038.27417 303.687561 1036.516357 301.539124 C 1033.000732 297.437561 1028.508545 294.019592 1023.039795 291.285217 C 1017.96167 288.746155 1012.004639 287.476624 1005.168701 287.476624 L 845.793701 287.476624 Z M 990.520264 511.304718 L 990.520264 476.148468 L 920.500732 476.148468 C 913.664795 476.148468 907.707764 474.878937 902.629639 472.339874 C 899.895264 470.777374 897.405029 469.166046 895.158936 467.50589 C 892.912842 465.845754 890.910889 463.941467 889.153076 461.79303 C 887.199951 459.644592 885.539795 457.398499 884.172607 455.054749 C 882.80542 452.710999 881.633545 450.171926 880.656982 447.437531 C 879.68042 444.703156 878.947998 442.017609 878.459717 439.38089 C 877.971436 436.744171 877.727295 434.058624 877.727295 431.324249 L 877.727295 380.347687 L 1038.27417 380.347687 L 1038.27417 337.574249 C 1038.27417 333.277374 1037.49292 328.492228 1035.93042 323.218811 C 1034.563232 318.531311 1032.317139 314.234436 1029.192139 310.328186 C 1026.262451 306.226624 1022.453857 303.003967 1017.766357 300.660217 C 1013.27417 298.121155 1007.903076 296.851624 1001.653076 296.851624 L 845.793701 296.851624 L 845.793701 332.300812 L 996.672607 332.300812 L 996.672607 332.593781 C 997.64917 332.593781 998.821045 333.082062 1000.188232 334.058624 C 1001.360107 335.230499 1001.946045 336.890656 1001.946045 339.039093 L 1001.946045 344.605499 C 975.188232 344.605499 948.625732 344.654327 922.258545 344.751984 C 895.891357 344.84964 869.231201 344.898468 842.278076 344.898468 L 842.278076 349.878937 L 842.278076 380.347687 L 842.278076 389.722687 L 842.278076 425.171906 L 842.278076 431.324249 C 842.278076 442.652374 844.328857 453.101603 848.43042 462.671936 C 852.531982 472.437541 858.000732 480.933634 864.83667 488.160217 C 871.477295 495.38678 879.387451 501.050842 888.567139 505.152405 C 893.059326 507.300822 897.600342 508.863322 902.190186 509.839905 C 906.780029 510.816447 911.516357 511.304718 916.39917 511.304718 Z M 1038.27417 389.722687 L 887.395264 389.722687 L 887.395264 428.687531 C 887.590576 430.640656 887.834717 432.544952 888.127686 434.400421 C 888.420654 436.25589 888.957764 438.160187 889.739014 440.113312 C 891.301514 445.386749 893.547607 449.781291 896.477295 453.296936 C 899.406982 457.203186 903.215576 460.425842 907.903076 462.964905 C 912.199951 465.308655 917.571045 466.48053 924.016357 466.48053 L 990.520264 466.48053 L 990.520264 431.617218 L 923.43042 431.617218 C 921.86792 431.617218 920.891357 430.78714 920.500732 429.126984 C 920.110107 427.466827 919.914795 426.148468 919.914795 425.171906 L 1001.946045 425.171906 L 1001.946045 512.476563 L 1038.27417 512.476563 Z"/>
            <path id="path5" fill="#000000" stroke="none" d="M 1277.629639 212.183624 L 1277.629639 200.171906 C 1277.629639 197.046906 1278.11792 193.726593 1279.094482 190.210968 C 1279.485107 188.453156 1280.022217 186.841827 1280.705811 185.376984 C 1281.389404 183.91214 1282.219482 182.398468 1283.196045 180.835968 C 1285.539795 177.906281 1287.981201 175.660187 1290.520264 174.097687 C 1293.059326 172.535187 1296.477295 171.753937 1300.77417 171.753937 C 1302.922607 171.753937 1307.414795 171.41214 1314.250732 170.728546 C 1321.08667 170.044952 1328.996826 169.898468 1337.981201 170.289093 L 1337.981201 196.363312 L 1303.703857 196.363312 C 1303.313232 196.558624 1303.020264 196.753937 1302.824951 196.949249 C 1302.434326 197.144562 1302.043701 197.437531 1301.653076 197.828156 C 1300.871826 198.414093 1300.481201 199.488312 1300.481201 201.050812 L 1300.481201 212.183624 Z M 1248.918701 187.867218 C 1249.504639 183.375031 1250.578857 178.882843 1252.141357 174.390656 C 1254.68042 167.750031 1258.098389 161.792999 1262.395264 156.519562 C 1266.887451 151.441437 1271.86792 147.437541 1277.33667 144.507874 C 1282.80542 141.578186 1288.567139 140.113342 1294.621826 140.113342 L 1337.981201 140.113342 L 1337.981201 164.722687 L 1297.258545 164.722687 C 1293.352295 164.722687 1289.641357 165.699249 1286.125732 167.652374 C 1282.610107 169.996124 1279.778076 172.437531 1277.629639 174.976593 C 1275.285889 177.906281 1273.528076 181.324249 1272.356201 185.230499 C 1271.184326 189.136749 1270.598389 192.847687 1270.598389 196.363312 L 1270.598389 212.183624 L 1248.918701 212.183624 Z M 1339.153076 250.855499 L 1339.153076 513.0625 L 1305.46167 513.0625 L 1305.46167 470.875031 L 1305.46167 462.085999 L 1305.46167 426.050812 L 1305.46167 408.472717 L 1305.46167 250.855499 Z M 1296.08667 468.531281 L 1296.08667 513.0625 L 1258.58667 513.0625 L 1258.58667 484.644592 L 1205.559326 511.890656 L 1180.949951 511.890656 C 1174.504639 511.890656 1168.449951 511.597687 1162.785889 511.011749 C 1157.121826 510.425832 1152.043701 509.351613 1147.551514 507.789093 C 1138.371826 504.859406 1130.656982 500.269562 1124.406982 494.019562 C 1118.547607 487.57427 1114.153076 479.273488 1111.223389 469.117218 C 1108.293701 458.960988 1106.828857 446.460988 1106.828857 431.617218 L 1106.828857 250.855499 L 1140.520264 250.855499 L 1140.520264 439.234406 C 1140.520264 444.703156 1141.106201 449.585978 1142.278076 453.882874 C 1143.840576 458.960999 1145.989014 462.964905 1148.723389 465.894592 C 1151.653076 469.410197 1155.46167 472.046906 1160.14917 473.804718 C 1162.49292 474.781281 1165.129639 475.513702 1168.059326 476.001984 C 1170.989014 476.490265 1174.114014 476.734406 1177.434326 476.734406 L 1201.750732 476.734406 L 1296.08667 432.203156 Z M 1197.942139 464.429749 L 1296.08667 420.484436 L 1296.08667 250.855499 L 1258.58667 250.855499 L 1258.58667 406.421936 L 1190.324951 431.617218 C 1189.348389 432.007843 1188.420654 431.959015 1187.541748 431.470734 C 1186.662842 430.982452 1185.832764 430.445343 1185.051514 429.859406 C 1183.879639 428.687531 1183.293701 427.027374 1183.293701 424.878937 L 1183.293701 250.855499 L 1149.895264 250.855499 L 1149.895264 433.667999 C 1149.895264 437.964874 1150.383545 442.359406 1151.360107 446.851593 C 1152.33667 451.148488 1153.89917 454.664124 1156.047607 457.398499 C 1158.391357 460.523499 1161.516357 462.867249 1165.422607 464.429749 C 1166.39917 464.820374 1168.401123 465.16217 1171.428467 465.455139 C 1174.455811 465.748108 1177.678467 465.94342 1181.096436 466.041077 C 1184.514404 466.138733 1187.785889 466.041077 1190.910889 465.748108 C 1194.035889 465.455139 1196.379639 465.015686 1197.942139 464.429749 Z"/>
            <path id="path6" fill="#000000" stroke="none" d="M 1542.957764 211.304718 L 1542.957764 135.718811 L 1567.860107 135.718811 L 1567.860107 211.304718 L 1542.957764 211.304718 Z M 1574.598389 211.304718 L 1574.598389 135.718811 L 1599.500732 135.718811 L 1599.500732 211.304718 L 1574.598389 211.304718 Z M 1535.340576 532.984436 L 1562.293701 532.984436 L 1562.293701 602.710999 C 1561.903076 607.789124 1560.584717 611.109375 1558.338623 612.671875 C 1556.092529 614.234375 1553.504639 615.113281 1550.574951 615.308594 L 1511.903076 615.308594 L 1511.903076 571.363281 C 1511.903076 568.628906 1510.438232 565.699219 1507.508545 562.574219 C 1504.578857 559.44928 1500.379639 557.789124 1494.910889 557.593811 L 1462.391357 557.593811 L 1462.391357 532.10553 L 1495.203857 532.10553 C 1500.08667 532.300842 1504.725342 533.277405 1509.119873 535.035217 C 1513.514404 536.79303 1517.469482 539.13678 1520.985107 542.066467 C 1524.500732 544.996155 1527.479248 548.462952 1529.920654 552.466858 C 1532.362061 556.470764 1533.973389 560.816467 1534.754639 565.503906 L 1535.340576 565.503906 Z M 1501.063232 624.390625 L 1501.063232 572.828125 C 1501.063232 570.09375 1500.526123 567.994141 1499.451904 566.529297 C 1498.377686 565.064453 1496.18042 564.234375 1492.860107 564.039063 L 1462.391357 564.039063 L 1462.391357 589.527405 L 1480.262451 589.527405 L 1480.262451 645.484436 L 1566.688232 645.484436 C 1573.133545 645.289124 1578.553467 644.654358 1582.947998 643.580139 C 1587.342529 642.50592 1590.955811 640.796936 1593.787842 638.453125 C 1596.619873 636.109375 1598.572998 632.984375 1599.647217 629.078125 C 1600.721436 625.171875 1601.160889 620.386719 1600.965576 614.722656 L 1601.844482 532.984436 L 1575.184326 532.984436 L 1575.184326 614.722656 C 1575.184326 617.652344 1574.158936 620.044922 1572.108154 621.900391 C 1570.057373 623.755859 1566.883545 624.585938 1562.58667 624.390625 Z M 1361.317139 251.734406 L 1501.356201 251.734406 L 1512.489014 226.539093 L 1547.938232 226.539093 C 1543.05542 237.281281 1538.270264 247.97464 1533.582764 258.619202 C 1528.895264 269.263733 1524.207764 279.859436 1519.520264 290.406311 C 1513.660889 288.453186 1507.215576 287.281311 1500.184326 286.890686 C 1477.528076 285.914124 1454.432373 285.718811 1430.897217 286.304749 C 1407.362061 286.890686 1384.168701 287.183655 1361.317139 287.183655 Z M 1557.89917 226.539093 C 1552.821045 237.867218 1547.694092 249.097687 1542.518311 260.23053 C 1537.342529 271.363342 1532.215576 282.496155 1527.137451 293.628967 C 1535.535889 297.925842 1542.567139 303.687561 1548.231201 310.914124 C 1553.309326 317.359436 1557.069092 324.390686 1559.510498 332.007843 C 1561.951904 339.625031 1563.172607 346.753937 1563.172607 353.394562 C 1563.36792 380.152374 1563.416748 406.714905 1563.319092 433.082062 C 1563.221436 459.449249 1563.172607 486.011749 1563.172607 512.769531 L 1598.621826 512.769531 L 1598.621826 332.007843 C 1598.621826 320.875061 1596.571045 310.425842 1592.469482 300.660217 C 1588.36792 290.894592 1582.89917 282.398499 1576.063232 275.171936 C 1575.477295 274.585999 1574.940186 274.000061 1574.451904 273.414124 C 1573.963623 272.828186 1573.328857 272.242249 1572.547607 271.656311 L 1592.762451 226.539093 Z M 1553.797607 380.347687 L 1393.250732 380.347687 L 1393.250732 431.324249 C 1393.250732 436.988312 1394.227295 442.457062 1396.18042 447.730499 C 1398.133545 453.003967 1400.86792 457.789124 1404.383545 462.085999 C 1412.781982 471.656281 1423.328857 476.441437 1436.02417 476.441437 L 1505.750732 476.441437 L 1505.750732 511.597687 L 1431.629639 511.597687 C 1421.668701 511.597687 1412.293701 509.498077 1403.504639 505.298889 C 1394.715576 501.09967 1387.000732 495.484436 1380.360107 488.453186 C 1373.52417 480.835968 1368.05542 472.339874 1363.953857 462.964905 C 1359.852295 453.003937 1357.801514 442.457062 1357.801514 431.324249 L 1357.801514 344.898468 C 1384.754639 344.898468 1411.414795 344.84964 1437.781982 344.751984 C 1464.14917 344.654327 1490.614014 344.605499 1517.176514 344.605499 C 1517.176514 343.042999 1517.176514 341.187531 1517.176514 339.039093 C 1517.176514 336.890656 1516.590576 335.230499 1515.418701 334.058624 C 1515.028076 333.667999 1514.393311 333.277374 1513.514404 332.886749 C 1512.635498 332.496124 1512.196045 332.203156 1512.196045 332.007843 L 1361.317139 332.007843 L 1361.317139 296.851624 C 1384.168701 296.851624 1407.313232 296.607483 1430.750732 296.119202 C 1454.188232 295.63092 1477.235107 295.875061 1499.891357 296.851624 C 1509.071045 297.242249 1516.981201 299.29303 1523.621826 303.003967 C 1530.262451 306.714905 1535.828857 311.402405 1540.321045 317.066467 C 1544.813232 322.73053 1548.084717 328.785217 1550.135498 335.230499 C 1552.186279 341.675812 1553.21167 347.730499 1553.21167 353.394562 C 1553.21167 357.886749 1553.309326 362.378937 1553.504639 366.871124 C 1553.699951 371.363312 1553.797607 375.855499 1553.797607 380.347687 Z M 1553.797607 389.722687 L 1553.797607 512.769531 L 1517.176514 512.769531 L 1517.176514 425.171906 L 1435.145264 425.171906 C 1435.340576 426.148468 1435.633545 427.515656 1436.02417 429.273468 C 1436.414795 431.031281 1437.391357 431.812531 1438.953857 431.617218 L 1505.750732 431.617218 L 1505.750732 466.773499 L 1439.539795 466.773499 C 1433.094482 466.773499 1427.625732 465.503967 1423.133545 462.964905 C 1414.14917 458.082092 1408.094482 450.562561 1404.969482 440.406281 C 1404.383545 438.257843 1403.895264 436.25589 1403.504639 434.400421 C 1403.114014 432.544952 1402.918701 430.738312 1402.918701 428.980499 C 1402.918701 422.339905 1402.869873 415.748108 1402.772217 409.205139 C 1402.674561 402.66217 1402.625732 396.16803 1402.625732 389.722687 Z"/>
            <path id="path7" fill="#000000" stroke="none" d="M 1634.949951 144.507874 L 1656.922607 144.507874 L 1656.922607 166.187531 L 1656.922607 167.945343 C 1656.922607 171.460968 1657.508545 174.781281 1658.68042 177.906281 C 1659.852295 181.226593 1661.610107 184.253937 1663.953857 186.988312 C 1666.297607 189.527374 1669.031982 191.675812 1672.156982 193.433624 C 1675.672607 194.996124 1679.481201 195.777374 1683.582764 195.777374 L 1790.223389 195.777374 L 1790.223389 217.750031 L 1680.946045 217.750031 C 1674.696045 217.750031 1668.934326 216.480499 1663.660889 213.941437 C 1657.996826 211.207062 1653.114014 207.691437 1649.012451 203.394562 C 1644.910889 199.292999 1641.49292 194.019562 1638.758545 187.574249 C 1636.219482 181.714874 1634.949951 175.171906 1634.949951 167.945343 Z M 1683.582764 144.507874 L 1683.582764 166.187531 C 1683.582764 166.382843 1683.631592 166.480499 1683.729248 166.480499 C 1683.826904 166.480499 1683.875732 166.578156 1683.875732 166.773468 C 1684.656982 167.554718 1685.438232 167.945343 1686.219482 167.945343 L 1790.223389 167.945343 L 1790.223389 189.917999 L 1685.633545 189.917999 C 1681.922607 189.917999 1678.504639 189.136749 1675.379639 187.574249 C 1672.840576 186.207062 1670.496826 184.253937 1668.348389 181.714874 C 1666.590576 179.371124 1665.223389 176.636749 1664.246826 173.511749 C 1664.051514 173.121124 1663.856201 172.19339 1663.660889 170.728546 C 1663.465576 169.263702 1663.270264 167.750031 1663.074951 166.187531 L 1663.074951 144.507874 Z M 1701.160889 288.35553 C 1693.739014 288.35553 1687.196045 289.625061 1681.531982 292.164124 C 1675.672607 294.312561 1670.594482 297.73053 1666.297607 302.41803 C 1662.196045 306.910217 1658.973389 312.183655 1656.629639 318.238342 C 1654.285889 324.097717 1653.114014 330.738332 1653.114014 338.160187 C 1653.114014 345.386749 1654.481201 352.027374 1657.215576 358.082062 C 1659.949951 363.746124 1663.36792 368.531281 1667.469482 372.437531 C 1671.571045 376.539093 1676.160889 379.761749 1681.239014 382.105499 C 1683.973389 383.472687 1686.561279 384.546906 1689.002686 385.328156 C 1691.444092 386.109406 1693.934326 386.695343 1696.473389 387.085968 C 1701.551514 388.062531 1706.727295 389.234406 1712.000732 390.601593 C 1717.664795 391.968801 1722.938232 394.214905 1727.821045 397.339905 C 1732.703857 400.464905 1736.707764 404.371155 1739.832764 409.058655 C 1742.957764 413.941467 1744.520264 420.191457 1744.520264 427.808624 C 1744.520264 435.035187 1743.446045 440.894562 1741.297607 445.386749 C 1739.14917 450.660207 1736.219482 454.859436 1732.508545 457.984436 C 1728.797607 461.304749 1724.500732 463.843811 1719.61792 465.601624 C 1717.27417 466.578186 1714.783936 467.212941 1712.147217 467.50589 C 1709.510498 467.798859 1706.824951 467.945343 1704.090576 467.945343 L 1614.14917 467.945343 L 1614.14917 432.789093 L 1700.86792 432.789093 C 1702.43042 432.789093 1703.602295 432.300812 1704.383545 431.324249 C 1705.164795 430.542999 1705.55542 429.566437 1705.55542 428.394562 C 1705.55542 426.050812 1704.481201 424.390656 1702.332764 423.414093 C 1701.942139 423.218781 1701.258545 423.023468 1700.281982 422.828156 C 1699.30542 422.632843 1697.840576 422.339874 1695.887451 421.949249 C 1692.371826 421.363332 1688.172607 420.484436 1683.289795 419.312561 C 1678.602295 418.531311 1673.914795 417.359436 1669.227295 415.796936 C 1665.125732 414.625061 1661.610107 413.257874 1658.68042 411.695374 C 1656.141357 410.132874 1653.602295 408.521545 1651.063232 406.861389 C 1648.52417 405.201233 1645.985107 403.296936 1643.446045 401.148499 C 1638.563232 397.046936 1634.266357 391.968801 1630.55542 385.914093 C 1628.406982 382.984406 1626.600342 379.810577 1625.135498 376.392609 C 1623.670654 372.97464 1622.352295 369.312531 1621.18042 365.406281 C 1618.83667 357.593781 1617.664795 348.511749 1617.664795 338.160187 C 1617.664795 326.63677 1619.910889 315.503967 1624.403076 304.76178 C 1628.504639 294.410217 1634.364014 285.425842 1641.981201 277.808655 C 1649.598389 269.800842 1658.387451 263.843811 1668.348389 259.937561 C 1678.114014 255.445353 1689.051514 253.199249 1701.160889 253.199249 L 1789.344482 253.199249 L 1789.344482 288.35553 Z M 1702.625732 333.472687 C 1701.063232 333.472687 1699.891357 333.863312 1699.110107 334.644562 C 1698.328857 335.816437 1697.938232 336.890656 1697.938232 337.867218 C 1697.938232 339.039093 1698.231201 340.015656 1698.817139 340.796906 C 1699.403076 341.968781 1700.184326 342.554718 1701.160889 342.554718 C 1701.551514 342.750031 1702.235107 342.945343 1703.21167 343.140656 C 1704.188232 343.335968 1705.653076 343.628937 1707.606201 344.019562 C 1709.364014 344.410187 1711.268311 344.84964 1713.319092 345.337921 C 1715.369873 345.826202 1717.567139 346.363312 1719.910889 346.949249 C 1722.254639 347.339874 1724.549561 347.828156 1726.795654 348.414093 C 1729.041748 349.000031 1731.33667 349.683624 1733.68042 350.464874 C 1736.219482 351.050812 1738.36792 351.685577 1740.125732 352.369171 C 1741.883545 353.052765 1743.348389 353.687531 1744.520264 354.273468 C 1747.254639 355.835968 1749.891357 357.496124 1752.43042 359.253937 C 1754.969482 361.011749 1757.606201 362.964874 1760.340576 365.113312 C 1762.879639 367.261749 1765.272217 369.605499 1767.518311 372.144562 C 1769.764404 374.683624 1771.96167 377.417999 1774.110107 380.347687 C 1776.258545 383.277374 1778.114014 386.451202 1779.676514 389.869171 C 1781.239014 393.28716 1782.703857 396.94928 1784.071045 400.85553 C 1786.414795 408.863342 1787.58667 417.847707 1787.58667 427.808624 C 1787.58667 440.113312 1785.438232 451.246134 1781.141357 461.207092 C 1776.844482 471.363322 1770.985107 480.347697 1763.563232 488.160217 C 1755.946045 495.777405 1747.059326 501.734436 1736.903076 506.031311 C 1731.824951 508.375061 1726.551514 510.084035 1721.082764 511.158234 C 1715.614014 512.232432 1709.949951 512.769531 1704.090576 512.769531 L 1614.14917 512.769531 L 1614.14917 477.613312 L 1704.090576 477.613312 C 1711.903076 477.613312 1718.739014 476.343781 1724.598389 473.804718 C 1730.653076 471.460968 1735.926514 468.043009 1740.418701 463.550842 C 1744.910889 459.058655 1748.328857 453.785207 1750.672607 447.730499 C 1753.016357 441.675812 1754.188232 435.035187 1754.188232 427.808624 C 1754.188232 418.82427 1752.528076 411.304749 1749.207764 405.250061 C 1745.496826 399.390686 1741.297607 394.800842 1736.610107 391.48053 C 1731.33667 387.769572 1725.965576 385.230499 1720.496826 383.863312 C 1717.567139 382.886749 1714.783936 382.056671 1712.147217 381.373077 C 1709.510498 380.689484 1707.020264 380.152374 1704.676514 379.761749 C 1699.207764 378.589874 1694.031982 377.125031 1689.14917 375.367218 C 1686.610107 374.390656 1684.217529 373.267609 1681.971436 371.998077 C 1679.725342 370.728546 1677.625732 369.312531 1675.672607 367.750031 C 1671.571045 364.234406 1668.446045 360.230499 1666.297607 355.738312 C 1663.953857 351.050812 1662.781982 345.191437 1662.781982 338.160187 C 1662.781982 331.128957 1663.758545 325.269592 1665.71167 320.582092 C 1667.469482 315.69928 1670.106201 311.500061 1673.621826 307.984436 C 1677.332764 304.664124 1681.434326 302.125061 1685.926514 300.367249 C 1688.270264 299.390686 1690.71167 298.75592 1693.250732 298.462952 C 1695.789795 298.169983 1698.426514 298.023499 1701.160889 298.023499 L 1789.344482 298.023499 L 1789.344482 333.179718 Z"/>
            <path id="path8" fill="#000000" stroke="none" d="M 1872.840576 251.734406 L 1914.735107 251.734406 C 1923.52417 252.906281 1930.067139 255.933634 1934.364014 260.816467 L 1934.364014 251.734406 L 1957.508545 251.734406 L 1957.508545 272.242249 C 1956.727295 281.031311 1953.797607 288.35553 1948.719482 294.214905 C 1944.422607 299.097717 1939.539795 302.125061 1934.071045 303.296936 C 1933.68042 302.906311 1933.485107 302.515686 1933.485107 302.125061 C 1931.727295 299.976624 1929.77417 298.023499 1927.625732 296.265686 C 1926.64917 295.289124 1925.574951 294.507874 1924.403076 293.921936 C 1918.739014 290.015686 1912.684326 287.671936 1906.239014 286.890686 L 1804.871826 286.890686 L 1804.871826 251.734406 Z M 1939.637451 312.378967 C 1948.231201 309.644592 1955.018311 304.664124 1959.998779 297.437561 C 1964.979248 290.210999 1967.567139 281.910217 1967.762451 272.535217 L 1967.762451 251.734406 L 1996.473389 251.734406 L 1996.473389 276.929749 C 1996.473389 285.523499 1994.910889 293.482483 1991.785889 300.806702 C 1988.660889 308.13092 1984.266357 314.332092 1978.602295 319.410217 C 1979.188232 323.51178 1979.481201 327.710988 1979.481201 332.007843 L 1979.481201 511.597687 L 1944.324951 511.597687 L 1944.324951 364.234406 L 1944.61792 364.234406 L 1944.61792 333.765656 L 1944.61792 333.472687 C 1944.422607 326.050832 1942.762451 319.019592 1939.637451 312.378967 Z M 1804.871826 296.851624 L 1905.653076 296.851624 C 1909.754639 297.437561 1913.465576 298.75592 1916.785889 300.806702 C 1920.106201 302.857483 1923.035889 305.445374 1925.574951 308.570374 C 1930.457764 314.820374 1933.387451 322.242238 1934.364014 330.835968 L 1934.071045 330.835968 C 1934.266357 331.617218 1934.364014 332.691437 1934.364014 334.058624 L 1934.364014 364.234406 L 1934.656982 364.234406 L 1934.656982 377.710968 L 1825.08667 377.710968 L 1825.08667 342.554718 L 1902.137451 342.554718 L 1902.137451 338.746124 C 1902.137451 336.597687 1901.551514 334.937531 1900.379639 333.765656 C 1899.207764 332.593781 1898.133545 332.007843 1897.156982 332.007843 L 1804.871826 332.007843 Z M 1934.656982 386.500031 L 1825.08667 386.500031 L 1825.08667 421.656281 L 1902.137451 421.656281 L 1902.137451 511.597687 L 1934.656982 511.597687 Z M 1944.031982 524.195374 L 1944.031982 538.843811 C 1944.031982 541.382874 1943.787842 543.82428 1943.299561 546.16803 C 1942.811279 548.51178 1942.078857 550.953186 1941.102295 553.492249 C 1939.344482 558.37502 1936.707764 562.671875 1933.192139 566.382813 C 1929.871826 570.09375 1925.574951 573.21875 1920.301514 575.757813 C 1915.223389 578.101603 1909.559326 579.273499 1903.309326 579.273499 L 1875.184326 579.273499 L 1857.313232 566.96875 L 1836.80542 579.273499 L 1805.750732 579.273499 L 1805.750732 610.914063 L 1836.512451 610.914063 L 1857.020264 598.902405 L 1875.770264 611.207031 L 1907.11792 611.207031 C 1911.80542 611.207031 1916.346436 610.669922 1920.740967 609.595703 C 1925.135498 608.521484 1929.481201 607.105469 1933.778076 605.347656 C 1942.176514 601.636759 1949.696045 596.558655 1956.33667 590.113342 C 1959.656982 586.79303 1962.537842 583.277405 1964.979248 579.566467 C 1967.420654 575.855489 1969.715576 571.753906 1971.864014 567.261719 C 1975.574951 558.668009 1977.43042 549.195374 1977.43042 538.843811 L 1977.43042 524.195374 Z M 1895.39917 539.13678 C 1896.375732 539.13678 1897.449951 538.550842 1898.621826 537.378967 C 1899.598389 536.402405 1900.08667 534.937561 1900.08667 532.984436 L 1900.08667 524.195374 L 1934.071045 524.195374 L 1934.071045 534.44928 C 1934.071045 538.941467 1933.387451 543.238342 1932.020264 547.339905 C 1930.457764 551.832092 1928.309326 555.738322 1925.574951 559.058594 C 1922.840576 562.769531 1919.324951 565.601563 1915.028076 567.554688 C 1910.926514 569.703125 1905.848389 570.777344 1899.793701 570.777344 L 1875.477295 570.777344 L 1857.020264 558.765686 L 1836.80542 570.777344 L 1805.750732 570.777344 L 1805.750732 539.13678 L 1836.80542 539.13678 L 1857.020264 527.125061 L 1875.477295 539.13678 Z"/>
            <path id="path9" fill="#000000" stroke="none" d="M 2011.121826 411.109436 L 2044.813232 411.109436 L 2044.813232 478.785187 L 2159.364014 478.785187 C 2162.684326 478.785187 2165.418701 478.101593 2167.567139 476.734406 C 2169.715576 475.367218 2171.082764 473.316437 2171.668701 470.582062 C 2172.645264 468.04302 2172.547607 465.406311 2171.375732 462.671936 C 2170.594482 459.937561 2169.227295 457.300842 2167.27417 454.76178 L 2063.856201 305.054749 C 2063.660889 304.468811 2063.074951 303.19928 2062.098389 301.246155 C 2061.317139 299.488342 2061.219482 298.218811 2061.80542 297.437561 C 2062.000732 296.460999 2062.781982 295.484436 2064.14917 294.507874 C 2065.516357 293.726624 2066.688232 293.335999 2067.664795 293.335999 L 2201.844482 293.335999 L 2201.844482 326.148499 L 2113.953857 326.148499 L 2191.004639 431.324249 C 2191.981201 432.300812 2192.762451 433.423859 2193.348389 434.69339 C 2193.934326 435.962921 2194.715576 437.281281 2195.692139 438.648468 C 2196.473389 440.210968 2197.205811 441.72464 2197.889404 443.189484 C 2198.572998 444.654327 2199.30542 446.265656 2200.08667 448.023468 C 2201.453857 451.343801 2202.625732 454.859436 2203.602295 458.570374 C 2204.578857 462.867249 2205.067139 466.675832 2205.067139 469.996124 C 2205.067139 475.660187 2203.895264 480.933634 2201.551514 485.816467 C 2199.207764 490.894572 2195.985107 495.386759 2191.883545 499.29303 C 2189.93042 501.441447 2187.830811 503.248077 2185.584717 504.712921 C 2183.338623 506.177785 2180.946045 507.496145 2178.406982 508.667999 C 2173.328857 511.011729 2167.957764 512.183594 2162.293701 512.183594 C 2147.254639 512.183594 2133.729248 512.232422 2121.717529 512.330078 C 2109.705811 512.427734 2097.987061 512.476563 2086.561279 512.476563 C 2075.135498 512.476563 2063.465576 512.525391 2051.551514 512.623047 C 2039.637451 512.720703 2026.160889 512.769531 2011.121826 512.769531 Z M 2086.414795 411.109436 L 2086.414795 437.476593 L 2109.266357 437.476593 L 2032.801514 332.300812 C 2032.215576 331.519562 2031.629639 330.640666 2031.043701 329.664124 C 2030.457764 328.687561 2029.676514 327.515686 2028.699951 326.148499 C 2027.918701 324.976624 2027.137451 323.707092 2026.356201 322.339905 C 2025.574951 320.972717 2024.793701 319.507874 2024.012451 317.945374 C 2023.426514 316.382874 2022.791748 314.771545 2022.108154 313.111389 C 2021.424561 311.451233 2020.887451 309.644592 2020.496826 307.691467 C 2019.324951 304.175842 2018.739014 300.464905 2018.739014 296.558655 C 2018.739014 290.308655 2020.008545 284.644592 2022.547607 279.566467 C 2024.891357 274.097717 2028.016357 269.214905 2031.922607 264.91803 C 2036.02417 260.816467 2040.614014 257.496145 2045.692139 254.957062 C 2051.160889 252.417999 2056.531982 251.148468 2061.80542 251.148468 L 2201.844482 251.148468 L 2201.844482 284.839905 L 2064.735107 284.839905 C 2061.610107 284.839905 2058.973389 285.621155 2056.824951 287.183655 C 2054.676514 288.550842 2053.309326 290.503967 2052.723389 293.04303 C 2051.746826 295.777405 2051.746826 298.414124 2052.723389 300.953186 C 2053.895264 303.882874 2055.360107 306.519592 2057.11792 308.863342 L 2161.121826 458.570374 C 2161.903076 460.132874 2162.391357 461.402405 2162.58667 462.378967 C 2162.977295 464.13678 2162.879639 465.503967 2162.293701 466.48053 C 2162.293701 467.066447 2161.707764 467.945343 2160.535889 469.117218 C 2159.559326 469.898468 2158.289795 470.289093 2156.727295 470.289093 L 2053.016357 470.289093 L 2053.016357 411.109436 Z"/>
            <path id="path10" fill="#000000" stroke="none" d="M 2306.727295 288.35553 C 2299.30542 288.35553 2292.762451 289.625061 2287.098389 292.164124 C 2281.239014 294.312561 2276.160889 297.73053 2271.864014 302.41803 C 2267.762451 306.910217 2264.539795 312.183655 2262.196045 318.238342 C 2259.852295 324.097717 2258.68042 330.738332 2258.68042 338.160187 C 2258.68042 345.386749 2260.047607 352.027374 2262.781982 358.082062 C 2265.516357 363.746124 2268.934326 368.531281 2273.035889 372.437531 C 2277.137451 376.539093 2281.727295 379.761749 2286.80542 382.105499 C 2289.539795 383.472687 2292.127686 384.546906 2294.569092 385.328156 C 2297.010498 386.109406 2299.500732 386.695343 2302.039795 387.085968 C 2307.11792 388.062531 2312.293701 389.234406 2317.567139 390.601593 C 2323.231201 391.968801 2328.504639 394.214905 2333.387451 397.339905 C 2338.270264 400.464905 2342.27417 404.371155 2345.39917 409.058655 C 2348.52417 413.941467 2350.08667 420.191457 2350.08667 427.808624 C 2350.08667 435.035187 2349.012451 440.894562 2346.864014 445.386749 C 2344.715576 450.660207 2341.785889 454.859436 2338.074951 457.984436 C 2334.364014 461.304749 2330.067139 463.843811 2325.184326 465.601624 C 2322.840576 466.578186 2320.350342 467.212941 2317.713623 467.50589 C 2315.076904 467.798859 2312.391357 467.945343 2309.656982 467.945343 L 2219.715576 467.945343 L 2219.715576 432.789093 L 2306.434326 432.789093 C 2307.996826 432.789093 2309.168701 432.300812 2309.949951 431.324249 C 2310.731201 430.542999 2311.121826 429.566437 2311.121826 428.394562 C 2311.121826 426.050812 2310.047607 424.390656 2307.89917 423.414093 C 2307.508545 423.218781 2306.824951 423.023468 2305.848389 422.828156 C 2304.871826 422.632843 2303.406982 422.339874 2301.453857 421.949249 C 2297.938232 421.363332 2293.739014 420.484436 2288.856201 419.312561 C 2284.168701 418.531311 2279.481201 417.359436 2274.793701 415.796936 C 2270.692139 414.625061 2267.176514 413.257874 2264.246826 411.695374 C 2261.707764 410.132874 2259.168701 408.521545 2256.629639 406.861389 C 2254.090576 405.201233 2251.551514 403.296936 2249.012451 401.148499 C 2244.129639 397.046936 2239.832764 391.968801 2236.121826 385.914093 C 2233.973389 382.984406 2232.166748 379.810577 2230.701904 376.392609 C 2229.237061 372.97464 2227.918701 369.312531 2226.746826 365.406281 C 2224.403076 357.593781 2223.231201 348.511749 2223.231201 338.160187 C 2223.231201 326.63677 2225.477295 315.503967 2229.969482 304.76178 C 2234.071045 294.410217 2239.93042 285.425842 2247.547607 277.808655 C 2255.164795 269.800842 2263.953857 263.843811 2273.914795 259.937561 C 2283.68042 255.445353 2294.61792 253.199249 2306.727295 253.199249 L 2394.910889 253.199249 L 2394.910889 288.35553 Z M 2308.192139 333.472687 C 2306.629639 333.472687 2305.457764 333.863312 2304.676514 334.644562 C 2303.895264 335.816437 2303.504639 336.890656 2303.504639 337.867218 C 2303.504639 339.039093 2303.797607 340.015656 2304.383545 340.796906 C 2304.969482 341.968781 2305.750732 342.554718 2306.727295 342.554718 C 2307.11792 342.750031 2307.801514 342.945343 2308.778076 343.140656 C 2309.754639 343.335968 2311.219482 343.628937 2313.172607 344.019562 C 2314.93042 344.410187 2316.834717 344.84964 2318.885498 345.337921 C 2320.936279 345.826202 2323.133545 346.363312 2325.477295 346.949249 C 2327.821045 347.339874 2330.115967 347.828156 2332.362061 348.414093 C 2334.608154 349.000031 2336.903076 349.683624 2339.246826 350.464874 C 2341.785889 351.050812 2343.934326 351.685577 2345.692139 352.369171 C 2347.449951 353.052765 2348.914795 353.687531 2350.08667 354.273468 C 2352.821045 355.835968 2355.457764 357.496124 2357.996826 359.253937 C 2360.535889 361.011749 2363.172607 362.964874 2365.906982 365.113312 C 2368.446045 367.261749 2370.838623 369.605499 2373.084717 372.144562 C 2375.330811 374.683624 2377.528076 377.417999 2379.676514 380.347687 C 2381.824951 383.277374 2383.68042 386.451202 2385.24292 389.869171 C 2386.80542 393.28716 2388.270264 396.94928 2389.637451 400.85553 C 2391.981201 408.863342 2393.153076 417.847707 2393.153076 427.808624 C 2393.153076 440.113312 2391.004639 451.246134 2386.707764 461.207092 C 2382.410889 471.363322 2376.551514 480.347697 2369.129639 488.160217 C 2361.512451 495.777405 2352.625732 501.734436 2342.469482 506.031311 C 2337.391357 508.375061 2332.11792 510.084035 2326.64917 511.158234 C 2321.18042 512.232432 2315.516357 512.769531 2309.656982 512.769531 L 2219.715576 512.769531 L 2219.715576 477.613312 L 2309.656982 477.613312 C 2317.469482 477.613312 2324.30542 476.343781 2330.164795 473.804718 C 2336.219482 471.460968 2341.49292 468.043009 2345.985107 463.550842 C 2350.477295 459.058655 2353.895264 453.785207 2356.239014 447.730499 C 2358.582764 441.675812 2359.754639 435.035187 2359.754639 427.808624 C 2359.754639 418.82427 2358.094482 411.304749 2354.77417 405.250061 C 2351.063232 399.390686 2346.864014 394.800842 2342.176514 391.48053 C 2336.903076 387.769572 2331.531982 385.230499 2326.063232 383.863312 C 2323.133545 382.886749 2320.350342 382.056671 2317.713623 381.373077 C 2315.076904 380.689484 2312.58667 380.152374 2310.24292 379.761749 C 2304.77417 378.589874 2299.598389 377.125031 2294.715576 375.367218 C 2292.176514 374.390656 2289.783936 373.267609 2287.537842 371.998077 C 2285.291748 370.728546 2283.192139 369.312531 2281.239014 367.750031 C 2277.137451 364.234406 2274.012451 360.230499 2271.864014 355.738312 C 2269.520264 351.050812 2268.348389 345.191437 2268.348389 338.160187 C 2268.348389 331.128957 2269.324951 325.269592 2271.278076 320.582092 C 2273.035889 315.69928 2275.672607 311.500061 2279.188232 307.984436 C 2282.89917 304.664124 2287.000732 302.125061 2291.49292 300.367249 C 2293.83667 299.390686 2296.278076 298.75592 2298.817139 298.462952 C 2301.356201 298.169983 2303.99292 298.023499 2306.727295 298.023499 L 2394.910889 298.023499 L 2394.910889 333.179718 Z"/>
            <path id="path11" fill="#000000" stroke="none" d="M 2496.571045 288.35553 C 2489.14917 288.35553 2482.606201 289.625061 2476.942139 292.164124 C 2471.082764 294.312561 2466.004639 297.73053 2461.707764 302.41803 C 2457.606201 306.910217 2454.383545 312.183655 2452.039795 318.238342 C 2449.696045 324.097717 2448.52417 330.738332 2448.52417 338.160187 C 2448.52417 345.386749 2449.891357 352.027374 2452.625732 358.082062 C 2455.360107 363.746124 2458.778076 368.531281 2462.879639 372.437531 C 2466.981201 376.539093 2471.571045 379.761749 2476.64917 382.105499 C 2479.383545 383.472687 2481.971436 384.546906 2484.412842 385.328156 C 2486.854248 386.109406 2489.344482 386.695343 2491.883545 387.085968 C 2496.96167 388.062531 2502.137451 389.234406 2507.410889 390.601593 C 2513.074951 391.968801 2518.348389 394.214905 2523.231201 397.339905 C 2528.114014 400.464905 2532.11792 404.371155 2535.24292 409.058655 C 2538.36792 413.941467 2539.93042 420.191457 2539.93042 427.808624 C 2539.93042 435.035187 2538.856201 440.894562 2536.707764 445.386749 C 2534.559326 450.660207 2531.629639 454.859436 2527.918701 457.984436 C 2524.207764 461.304749 2519.910889 463.843811 2515.028076 465.601624 C 2512.684326 466.578186 2510.194092 467.212941 2507.557373 467.50589 C 2504.920654 467.798859 2502.235107 467.945343 2499.500732 467.945343 L 2409.559326 467.945343 L 2409.559326 432.789093 L 2496.278076 432.789093 C 2497.840576 432.789093 2499.012451 432.300812 2499.793701 431.324249 C 2500.574951 430.542999 2500.965576 429.566437 2500.965576 428.394562 C 2500.965576 426.050812 2499.891357 424.390656 2497.74292 423.414093 C 2497.352295 423.218781 2496.668701 423.023468 2495.692139 422.828156 C 2494.715576 422.632843 2493.250732 422.339874 2491.297607 421.949249 C 2487.781982 421.363332 2483.582764 420.484436 2478.699951 419.312561 C 2474.012451 418.531311 2469.324951 417.359436 2464.637451 415.796936 C 2460.535889 414.625061 2457.020264 413.257874 2454.090576 411.695374 C 2451.551514 410.132874 2449.012451 408.521545 2446.473389 406.861389 C 2443.934326 405.201233 2441.395264 403.296936 2438.856201 401.148499 C 2433.973389 397.046936 2429.676514 391.968801 2425.965576 385.914093 C 2423.817139 382.984406 2422.010498 379.810577 2420.545654 376.392609 C 2419.080811 372.97464 2417.762451 369.312531 2416.590576 365.406281 C 2414.246826 357.593781 2413.074951 348.511749 2413.074951 338.160187 C 2413.074951 326.63677 2415.321045 315.503967 2419.813232 304.76178 C 2423.914795 294.410217 2429.77417 285.425842 2437.391357 277.808655 C 2445.008545 269.800842 2453.797607 263.843811 2463.758545 259.937561 C 2473.52417 255.445353 2484.46167 253.199249 2496.571045 253.199249 L 2584.754639 253.199249 L 2584.754639 288.35553 Z M 2498.035889 333.472687 C 2496.473389 333.472687 2495.301514 333.863312 2494.520264 334.644562 C 2493.739014 335.816437 2493.348389 336.890656 2493.348389 337.867218 C 2493.348389 339.039093 2493.641357 340.015656 2494.227295 340.796906 C 2494.813232 341.968781 2495.594482 342.554718 2496.571045 342.554718 C 2496.96167 342.750031 2497.645264 342.945343 2498.621826 343.140656 C 2499.598389 343.335968 2501.063232 343.628937 2503.016357 344.019562 C 2504.77417 344.410187 2506.678467 344.84964 2508.729248 345.337921 C 2510.780029 345.826202 2512.977295 346.363312 2515.321045 346.949249 C 2517.664795 347.339874 2519.959717 347.828156 2522.205811 348.414093 C 2524.451904 349.000031 2526.746826 349.683624 2529.090576 350.464874 C 2531.629639 351.050812 2533.778076 351.685577 2535.535889 352.369171 C 2537.293701 353.052765 2538.758545 353.687531 2539.93042 354.273468 C 2542.664795 355.835968 2545.301514 357.496124 2547.840576 359.253937 C 2550.379639 361.011749 2553.016357 362.964874 2555.750732 365.113312 C 2558.289795 367.261749 2560.682373 369.605499 2562.928467 372.144562 C 2565.174561 374.683624 2567.371826 377.417999 2569.520264 380.347687 C 2571.668701 383.277374 2573.52417 386.451202 2575.08667 389.869171 C 2576.64917 393.28716 2578.114014 396.94928 2579.481201 400.85553 C 2581.824951 408.863342 2582.996826 417.847707 2582.996826 427.808624 C 2582.996826 440.113312 2580.848389 451.246134 2576.551514 461.207092 C 2572.254639 471.363322 2566.395264 480.347697 2558.973389 488.160217 C 2551.356201 495.777405 2542.469482 501.734436 2532.313232 506.031311 C 2527.235107 508.375061 2521.96167 510.084035 2516.49292 511.158234 C 2511.02417 512.232432 2505.360107 512.769531 2499.500732 512.769531 L 2409.559326 512.769531 L 2409.559326 477.613312 L 2499.500732 477.613312 C 2507.313232 477.613312 2514.14917 476.343781 2520.008545 473.804718 C 2526.063232 471.460968 2531.33667 468.043009 2535.828857 463.550842 C 2540.321045 459.058655 2543.739014 453.785207 2546.082764 447.730499 C 2548.426514 441.675812 2549.598389 435.035187 2549.598389 427.808624 C 2549.598389 418.82427 2547.938232 411.304749 2544.61792 405.250061 C 2540.906982 399.390686 2536.707764 394.800842 2532.020264 391.48053 C 2526.746826 387.769572 2521.375732 385.230499 2515.906982 383.863312 C 2512.977295 382.886749 2510.194092 382.056671 2507.557373 381.373077 C 2504.920654 380.689484 2502.43042 380.152374 2500.08667 379.761749 C 2494.61792 378.589874 2489.442139 377.125031 2484.559326 375.367218 C 2482.020264 374.390656 2479.627686 373.267609 2477.381592 371.998077 C 2475.135498 370.728546 2473.035889 369.312531 2471.082764 367.750031 C 2466.981201 364.234406 2463.856201 360.230499 2461.707764 355.738312 C 2459.364014 351.050812 2458.192139 345.191437 2458.192139 338.160187 C 2458.192139 331.128957 2459.168701 325.269592 2461.121826 320.582092 C 2462.879639 315.69928 2465.516357 311.500061 2469.031982 307.984436 C 2472.74292 304.664124 2476.844482 302.125061 2481.33667 300.367249 C 2483.68042 299.390686 2486.121826 298.75592 2488.660889 298.462952 C 2491.199951 298.169983 2493.83667 298.023499 2496.571045 298.023499 L 2584.754639 298.023499 L 2584.754639 333.179718 Z"/>
            <path id="path12" fill="#000000" stroke="none" d="M 2632.801514 252.027374 L 2632.801514 409.058655 L 2632.801514 426.636749 L 2632.801514 462.378967 L 2632.801514 471.167999 L 2632.801514 512.769531 L 2599.403076 512.769531 L 2599.403076 252.027374 Z M 2642.469482 432.789093 L 2734.754639 476.734406 L 2759.364014 476.734406 C 2765.809326 476.734406 2771.571045 475.855499 2776.64917 474.097687 C 2780.946045 472.535187 2784.754639 469.898478 2788.074951 466.187561 C 2791.004639 463.062561 2793.05542 459.156311 2794.227295 454.468811 C 2795.594482 450.171916 2796.278076 445.289093 2796.278076 439.820343 L 2796.278076 252.027374 L 2829.676514 252.027374 L 2829.676514 432.203156 C 2829.676514 439.625031 2829.383545 446.41215 2828.797607 452.564514 C 2828.21167 458.716858 2827.137451 464.332082 2825.574951 469.410187 C 2822.645264 479.371145 2818.250732 487.57427 2812.391357 494.019562 C 2806.141357 500.269562 2798.426514 504.859406 2789.246826 507.789093 C 2779.481201 510.523468 2768.348389 511.890656 2755.848389 511.890656 L 2731.239014 511.890656 L 2679.676514 493.140656 L 2679.676514 512.769531 L 2642.469482 512.769531 L 2642.469482 468.824249 Z M 2642.469482 421.363342 L 2642.469482 252.027374 L 2679.676514 252.027374 L 2679.676514 407.300842 L 2746.473389 432.203156 C 2747.449951 432.789093 2748.377686 432.789093 2749.256592 432.203156 C 2750.135498 431.617218 2750.86792 431.031281 2751.453857 430.445343 C 2752.821045 429.273468 2753.504639 427.613312 2753.504639 425.464874 L 2753.504639 252.027374 L 2786.610107 252.027374 L 2786.610107 434.546906 C 2786.610107 439.429718 2786.219482 443.726593 2785.438232 447.437531 C 2784.46167 451.539113 2782.89917 455.054749 2780.750732 457.984436 C 2778.21167 461.109436 2774.989014 463.35553 2771.082764 464.722717 C 2770.106201 465.113342 2768.153076 465.503967 2765.223389 465.894592 C 2762.293701 466.285217 2759.119873 466.48053 2755.701904 466.48053 C 2752.283936 466.48053 2748.963623 466.382874 2745.740967 466.187561 C 2742.518311 465.992249 2740.223389 465.503967 2738.856201 464.722717 Z"/>
            <path id="path13" fill="#000000" stroke="none" d="M 3022.449951 532.984436 L 3049.403076 532.984436 L 3049.403076 602.710999 C 3049.012451 607.789083 3047.694092 611.109375 3045.447998 612.671875 C 3043.201904 614.234375 3040.614014 615.113281 3037.684326 615.308594 L 2999.012451 615.308594 L 2999.012451 571.363281 C 2999.012451 568.628906 2997.547607 565.699219 2994.61792 562.574219 C 2991.688232 559.449259 2987.489014 557.789124 2982.020264 557.593811 L 2949.500732 557.593811 L 2949.500732 532.10553 L 2982.313232 532.10553 C 2987.196045 532.300842 2991.834717 533.277405 2996.229248 535.035217 C 3000.623779 536.79303 3004.578857 539.13678 3008.094482 542.066467 C 3011.610107 544.996155 3014.588623 548.462952 3017.030029 552.466858 C 3019.471436 556.470764 3021.082764 560.816447 3021.864014 565.503906 L 3022.449951 565.503906 Z M 2988.172607 624.390625 L 2988.172607 572.828125 C 2988.172607 570.09375 2987.635498 567.994141 2986.561279 566.529297 C 2985.487061 565.064453 2983.289795 564.234375 2979.969482 564.039063 L 2949.500732 564.039063 L 2949.500732 589.527405 L 2967.371826 589.527405 L 2967.371826 645.484436 L 3053.797607 645.484436 C 3060.24292 645.289124 3065.662842 644.654358 3070.057373 643.580139 C 3074.451904 642.50592 3078.065186 640.796916 3080.897217 638.453125 C 3083.729248 636.109375 3085.682373 632.984375 3086.756592 629.078125 C 3087.830811 625.171875 3088.270264 620.386719 3088.074951 614.722656 L 3088.953857 532.984436 L 3062.293701 532.984436 L 3062.293701 614.722656 C 3062.293701 617.652344 3061.268311 620.044922 3059.217529 621.900391 C 3057.166748 623.755859 3053.99292 624.585938 3049.696045 624.390625 Z M 3085.731201 250.855499 L 3085.731201 513.0625 L 3052.039795 513.0625 L 3052.039795 470.875031 L 3052.039795 462.085999 L 3052.039795 426.050812 L 3052.039795 408.472717 L 3052.039795 250.855499 Z M 3042.664795 468.531281 L 3042.664795 513.0625 L 3005.164795 513.0625 L 3005.164795 484.644592 L 2952.137451 511.890656 L 2927.528076 511.890656 C 2921.082764 511.890656 2915.028076 511.597687 2909.364014 511.011749 C 2903.699951 510.425832 2898.621826 509.351613 2894.129639 507.789093 C 2884.949951 504.859406 2877.235107 500.269562 2870.985107 494.019562 C 2865.125732 487.57427 2860.731201 479.273488 2857.801514 469.117218 C 2854.871826 458.960988 2853.406982 446.460988 2853.406982 431.617218 L 2853.406982 250.855499 L 2887.098389 250.855499 L 2887.098389 439.234406 C 2887.098389 444.703156 2887.684326 449.585978 2888.856201 453.882874 C 2890.418701 458.960999 2892.567139 462.964905 2895.301514 465.894592 C 2898.231201 469.410197 2902.039795 472.046906 2906.727295 473.804718 C 2909.071045 474.781281 2911.707764 475.513702 2914.637451 476.001984 C 2917.567139 476.490265 2920.692139 476.734406 2924.012451 476.734406 L 2948.328857 476.734406 L 3042.664795 432.203156 Z M 2944.520264 464.429749 L 3042.664795 420.484436 L 3042.664795 250.855499 L 3005.164795 250.855499 L 3005.164795 406.421936 L 2936.903076 431.617218 C 2935.926514 432.007843 2934.998779 431.959015 2934.119873 431.470734 C 2933.240967 430.982452 2932.410889 430.445343 2931.629639 429.859406 C 2930.457764 428.687531 2929.871826 427.027374 2929.871826 424.878937 L 2929.871826 250.855499 L 2896.473389 250.855499 L 2896.473389 433.667999 C 2896.473389 437.964874 2896.96167 442.359406 2897.938232 446.851593 C 2898.914795 451.148488 2900.477295 454.664124 2902.625732 457.398499 C 2904.969482 460.523499 2908.094482 462.867249 2912.000732 464.429749 C 2912.977295 464.820374 2914.979248 465.16217 2918.006592 465.455139 C 2921.033936 465.748108 2924.256592 465.94342 2927.674561 466.041077 C 2931.092529 466.138733 2934.364014 466.041077 2937.489014 465.748108 C 2940.614014 465.455139 2942.957764 465.015686 2944.520264 464.429749 Z"/>
            <path id="path14" fill="#000000" stroke="none" d="M 3223.426514 482.300842 L 3351.746826 482.300842 C 3358.582764 482.300842 3364.637451 481.128957 3369.910889 478.785187 C 3375.184326 476.441437 3379.676514 473.414093 3383.387451 469.703156 C 3387.293701 465.796926 3390.028076 461.695374 3391.590576 457.398499 C 3393.543701 452.906311 3394.520264 448.218801 3394.520264 443.335968 L 3394.520264 255.542999 L 3429.969482 255.542999 L 3429.969482 443.335968 C 3429.969482 453.101613 3427.918701 462.183645 3423.817139 470.582062 C 3419.520264 479.371145 3414.051514 486.695363 3407.410889 492.554718 C 3400.574951 498.804718 3392.664795 503.785187 3383.68042 507.496124 C 3374.891357 511.011729 3365.71167 512.769531 3356.141357 512.769531 L 3223.426514 512.769531 Z M 3301.64917 351.636749 C 3301.64917 351.832062 3301.844482 352.125031 3302.235107 352.515656 C 3302.821045 353.101593 3303.602295 353.638702 3304.578857 354.126984 C 3305.55542 354.615265 3306.531982 354.664093 3307.508545 354.273468 L 3348.52417 331.128937 L 3348.52417 255.542999 L 3385.145264 255.542999 L 3385.145264 347.535187 C 3372.840576 354.175812 3361.072998 360.523468 3349.842529 366.578156 C 3338.612061 372.632843 3326.942139 379.078156 3314.832764 385.914093 L 3285.24292 385.621124 C 3279.969482 385.621124 3275.965576 382.642609 3273.231201 376.685577 C 3270.496826 370.728546 3268.934326 363.941437 3268.543701 356.324249 C 3268.348389 354.761749 3268.299561 353.345734 3268.397217 352.076202 C 3268.494873 350.806671 3268.543701 349.390656 3268.543701 347.828156 C 3268.543701 344.312531 3268.397217 340.796906 3268.104248 337.281281 C 3267.811279 333.765656 3267.664795 330.250041 3267.664795 326.734436 C 3267.664795 321.265686 3266.981201 316.48053 3265.614014 312.378967 C 3264.637451 308.082092 3262.489014 304.175842 3259.168701 300.660217 C 3256.239014 297.339905 3252.528076 294.800842 3248.035889 293.04303 C 3243.543701 291.089905 3237.879639 290.113342 3231.043701 290.113342 L 3136.121826 290.113342 L 3136.121826 512.476563 L 3100.672607 512.476563 L 3100.672607 255.542999 C 3113.36792 255.542999 3124.354248 255.542999 3133.631592 255.542999 C 3142.908936 255.542999 3151.063232 255.542999 3158.094482 255.542999 C 3165.125732 255.542999 3171.375732 255.591827 3176.844482 255.689484 C 3182.313232 255.78714 3187.635498 255.835968 3192.811279 255.835968 C 3197.987061 255.835968 3203.309326 255.835968 3208.778076 255.835968 C 3214.246826 255.835968 3220.39917 255.835968 3227.235107 255.835968 C 3240.125732 255.835968 3251.258545 257.300822 3260.633545 260.23053 C 3269.813232 263.160217 3277.43042 267.750061 3283.485107 274.000061 C 3289.539795 280.445374 3294.031982 288.550842 3296.96167 298.316467 C 3299.500732 307.300842 3300.86792 316.138733 3301.063232 324.830139 C 3301.258545 333.521525 3301.453857 342.457062 3301.64917 351.636749 Z M 3385.145264 359.839874 L 3385.145264 438.648468 C 3385.145264 442.554718 3384.364014 446.656291 3382.801514 450.953186 C 3381.434326 455.250061 3379.188232 459.058655 3376.063232 462.378967 C 3372.938232 465.699259 3369.129639 468.433624 3364.637451 470.582062 C 3360.340576 472.730499 3354.871826 473.804718 3348.231201 473.804718 L 3223.426514 473.804718 L 3223.426514 443.335968 L 3343.543701 443.335968 L 3343.543701 443.042999 C 3344.715576 443.042999 3345.789795 442.554718 3346.766357 441.578156 C 3347.938232 440.796906 3348.52417 439.429718 3348.52417 437.476593 L 3348.52417 416.089905 L 3322.156982 433.667999 L 3297.254639 433.667999 C 3290.809326 433.667999 3284.803467 433.277374 3279.237061 432.496124 C 3273.670654 431.714874 3268.543701 430.542999 3263.856201 428.980499 C 3254.676514 426.246124 3247.059326 421.753947 3241.004639 415.503967 C 3234.949951 409.44928 3230.457764 401.441467 3227.528076 391.48053 C 3224.793701 381.128947 3223.426514 369.019562 3223.426514 355.152374 L 3223.426514 337.574249 C 3223.231201 337.183624 3223.133545 336.890656 3223.133545 336.695343 C 3223.133545 336.500031 3222.938232 336.207062 3222.547607 335.816437 C 3221.96167 334.644562 3220.692139 334.058624 3218.739014 334.058624 C 3212.489014 334.058624 3206.190186 334.009796 3199.842529 333.91214 C 3193.494873 333.814484 3187.196045 333.765656 3180.946045 333.765656 L 3180.946045 512.476563 L 3145.496826 512.476563 L 3145.496826 299.488342 L 3227.528076 299.488342 C 3233.582764 299.488342 3238.660889 300.07428 3242.762451 301.246155 C 3246.668701 302.41803 3249.793701 304.273499 3252.137451 306.812561 C 3254.481201 309.742249 3256.043701 313.062561 3256.824951 316.773499 C 3257.215576 318.335999 3257.508545 320.093811 3257.703857 322.046936 C 3257.89917 324.000061 3257.996826 326.050842 3257.996826 328.19928 C 3257.996826 335.816447 3258.045654 343.433624 3258.143311 351.050812 C 3258.240967 358.667999 3258.289795 366.285187 3258.289795 373.902374 C 3259.46167 382.886749 3263.465576 389.283244 3270.301514 393.091858 C 3277.137451 396.900452 3285.047607 398.804749 3294.031982 398.804749 L 3318.348389 398.804749 Z"/>
            <path id="path15" fill="#000000" stroke="none" d="M 3539.539795 87.964905 C 3539.539795 80.738342 3538.172607 74.683655 3535.438232 69.800842 C 3532.89917 64.722717 3529.383545 60.23053 3524.891357 56.32428 C 3520.203857 52.613342 3515.321045 49.878967 3510.24292 48.121155 C 3504.969482 46.16803 3499.500732 45.191467 3493.83667 45.191467 L 3478.309326 45.191467 L 3475.672607 44.898499 L 3460.145264 44.898499 C 3453.699951 44.898499 3447.547607 46.265686 3441.688232 49.000061 C 3436.610107 51.539124 3432.020264 55.152405 3427.918701 59.839905 C 3425.965576 61.988342 3424.30542 64.332092 3422.938232 66.871155 C 3421.571045 69.410217 3420.39917 72.046936 3419.422607 74.781311 C 3417.469482 80.054749 3416.49292 85.621155 3416.49292 91.48053 L 3416.49292 130.445374 L 3380.164795 130.445374 L 3380.164795 91.48053 C 3380.164795 79.957092 3382.215576 69.019592 3386.317139 58.66803 C 3390.614014 48.707092 3396.18042 39.91803 3403.016357 32.300842 C 3410.047607 25.07428 3418.153076 19.214905 3427.332764 14.722717 C 3437.098389 10.425842 3446.571045 8.277405 3455.750732 8.277405 L 3493.83667 8.277405 C 3504.969482 8.277405 3515.614014 10.23053 3525.770264 14.13678 C 3535.926514 18.238342 3544.715576 23.707092 3552.137451 30.54303 C 3555.848389 34.058655 3559.119873 38.013733 3561.951904 42.408264 C 3564.783936 46.802795 3567.27417 51.246155 3569.422607 55.738342 C 3573.719482 64.527405 3575.86792 73.804749 3575.86792 83.570374 L 3544.227295 184.644562 L 3544.227295 512.769531 L 3507.89917 512.769531 L 3508.192139 184.058624 Z M 3462.489014 130.445374 L 3426.746826 130.445374 C 3426.551514 124.781311 3426.405029 119.214905 3426.307373 113.746155 C 3426.209717 108.277405 3426.160889 102.710999 3426.160889 97.046936 C 3426.160889 92.359436 3426.942139 87.378967 3428.504639 82.10553 C 3429.871826 77.222717 3432.215576 72.73053 3435.535889 68.628967 C 3438.465576 64.527405 3442.371826 61.207092 3447.254639 58.66803 C 3451.746826 56.128967 3457.215576 54.859436 3463.660889 54.859436 L 3478.309326 54.859436 L 3475.672607 54.566467 L 3488.270264 54.566467 C 3490.614014 54.566467 3492.957764 54.76178 3495.301514 55.152405 C 3497.645264 55.54303 3500.184326 56.128967 3502.918701 56.910217 C 3507.410889 58.277405 3511.903076 60.523499 3516.395264 63.648499 C 3520.106201 66.578186 3523.328857 70.38678 3526.063232 75.07428 C 3528.602295 79.566467 3529.871826 84.937561 3529.871826 91.187561 L 3498.231201 184.644562 L 3498.231201 512.769531 L 3462.781982 512.769531 L 3462.196045 183.765656 L 3493.250732 96.16803 C 3493.250732 95.191467 3492.762451 94.019592 3491.785889 92.652405 C 3490.614014 91.675842 3488.856201 91.187561 3486.512451 91.187561 C 3482.606201 91.187561 3480.213623 91.187561 3479.334717 91.187561 C 3478.455811 91.187561 3477.918701 91.236389 3477.723389 91.334045 C 3477.528076 91.431702 3476.990967 91.48053 3476.112061 91.48053 C 3475.233154 91.48053 3472.74292 91.48053 3468.641357 91.48053 L 3468.641357 91.773499 C 3467.469482 91.773499 3466.297607 92.359436 3465.125732 93.531311 C 3464.539795 94.117249 3463.953857 94.800842 3463.36792 95.582092 C 3462.781982 96.363342 3462.489014 97.339905 3462.489014 98.51178 Z"/>
            <path id="path16" fill="#000000" stroke="none" d="M 3565.614014 512.769531 L 3565.614014 252.320343 L 3599.30542 252.320343 L 3599.30542 512.769531 Z M 3702.723389 400.562561 L 3642.957764 400.562561 L 3642.957764 512.769531 L 3608.68042 512.769531 C 3608.68042 487.769552 3608.729248 462.867218 3608.826904 438.062531 C 3608.924561 413.257863 3608.973389 388.453176 3608.973389 363.648468 L 3704.188232 363.648468 L 3704.188232 363.941437 C 3709.266357 363.941437 3714.246826 365.015656 3719.129639 367.164093 C 3723.817139 369.312531 3727.918701 372.242218 3731.434326 375.953156 C 3732.996826 377.710968 3734.46167 379.664093 3735.828857 381.812531 C 3737.196045 383.960968 3738.36792 386.304718 3739.344482 388.843781 C 3740.125732 390.796926 3740.662842 392.554749 3740.955811 394.117249 C 3741.248779 395.679749 3741.590576 397.437561 3741.981201 399.390686 L 3741.981201 512.769531 L 3705.360107 512.769531 L 3705.360107 403.492249 C 3705.164795 402.515686 3704.77417 401.832092 3704.188232 401.441467 C 3703.602295 401.050842 3703.114014 400.757874 3702.723389 400.562561 Z M 3707.11792 338.453156 L 3699.793701 354.273468 L 3679.578857 354.273468 L 3608.973389 354.273468 C 3608.973389 337.476613 3608.924561 320.533264 3608.826904 303.44342 C 3608.729248 286.353577 3608.68042 269.312551 3608.68042 252.320343 L 3642.957764 252.320343 L 3642.957764 318.82428 L 3678.99292 318.82428 L 3710.633545 252.613312 L 3749.012451 252.613312 Z M 3798.52417 252.613312 L 3761.610107 252.613312 L 3711.80542 355.152374 C 3717.078857 355.542999 3722.059326 357.007843 3726.746826 359.546906 C 3731.434326 362.085968 3735.731201 365.699249 3739.637451 370.386749 C 3743.348389 374.683624 3746.375732 379.859406 3748.719482 385.914093 C 3748.914795 386.304718 3749.207764 387.232452 3749.598389 388.697296 C 3749.989014 390.16214 3750.379639 391.773478 3750.770264 393.531311 C 3751.160889 395.289124 3751.405029 396.851624 3751.502686 398.218811 C 3751.600342 399.585999 3751.551514 400.269592 3751.356201 400.269592 L 3751.356201 512.769531 L 3786.80542 512.769531 L 3786.80542 401.148499 L 3787.391357 401.148499 C 3787.000732 394.312541 3786.268311 388.013702 3785.194092 382.251984 C 3784.119873 376.490265 3782.410889 371.070343 3780.067139 365.992218 C 3774.989014 354.859406 3768.05542 345.875031 3759.266357 339.039093 Z"/>
            <path id="path17" fill="#000000" stroke="none" d="M 3987.489014 211.304718 L 3987.489014 135.718811 L 4012.391357 135.718811 L 4012.391357 211.304718 L 3987.489014 211.304718 Z M 4019.129639 211.304718 L 4019.129639 135.718811 L 4044.031982 135.718811 L 4044.031982 211.304718 L 4019.129639 211.304718 Z M 3846.571045 252.027374 L 3846.571045 409.058655 L 3846.571045 426.636749 L 3846.571045 462.378967 L 3846.571045 471.167999 L 3846.571045 512.769531 L 3813.172607 512.769531 L 3813.172607 252.027374 Z M 3856.239014 432.789093 L 3948.52417 476.734406 L 3973.133545 476.734406 C 3979.578857 476.734406 3985.340576 475.855499 3990.418701 474.097687 C 3994.715576 472.535187 3998.52417 469.898478 4001.844482 466.187561 C 4004.77417 463.062561 4006.824951 459.156311 4007.996826 454.468811 C 4009.364014 450.171916 4010.047607 445.289093 4010.047607 439.820343 L 4010.047607 252.027374 L 4043.446045 252.027374 L 4043.446045 432.203156 C 4043.446045 439.625031 4043.153076 446.41215 4042.567139 452.564514 C 4041.981201 458.716858 4040.906982 464.332082 4039.344482 469.410187 C 4036.414795 479.371145 4032.020264 487.57427 4026.160889 494.019562 C 4019.910889 500.269562 4012.196045 504.859406 4003.016357 507.789093 C 3993.250732 510.523468 3982.11792 511.890656 3969.61792 511.890656 L 3945.008545 511.890656 L 3893.446045 493.140656 L 3893.446045 512.769531 L 3856.239014 512.769531 L 3856.239014 468.824249 Z M 3856.239014 421.363342 L 3856.239014 252.027374 L 3893.446045 252.027374 L 3893.446045 407.300842 L 3960.24292 432.203156 C 3961.219482 432.789093 3962.147217 432.789093 3963.026123 432.203156 C 3963.905029 431.617218 3964.637451 431.031281 3965.223389 430.445343 C 3966.590576 429.273468 3967.27417 427.613312 3967.27417 425.464874 L 3967.27417 252.027374 L 4000.379639 252.027374 L 4000.379639 434.546906 C 4000.379639 439.429718 3999.989014 443.726593 3999.207764 447.437531 C 3998.231201 451.539113 3996.668701 455.054749 3994.520264 457.984436 C 3991.981201 461.109436 3988.758545 463.35553 3984.852295 464.722717 C 3983.875732 465.113342 3981.922607 465.503967 3978.99292 465.894592 C 3976.063232 466.285217 3972.889404 466.48053 3969.471436 466.48053 C 3966.053467 466.48053 3962.733154 466.382874 3959.510498 466.187561 C 3956.287842 465.992249 3953.99292 465.503967 3952.625732 464.722717 Z"/>
        </g>
    </g>
</svg>
